<svg xmlns="http://www.w3.org/2000/svg" xmlns:xlink= "http://www.w3.org/1999/xlink" viewBox="0 0 255.52 87.17" width="100%" height="100%" fill="white">
  <defs>
    <style>.cls-1{fill:#fff}</style>
  </defs>
  <path class="cls-1" d="M23 79.36c-1.95 4.36-2.63 4.57-7.32 4.57-3.39 0-4.07-.34-4.57-.93s-.72-2.25-.72-4.36V63.78c0-4.4.38-4.52 2.37-4.82l.93-.17a.84.84 0 00-.09-1.23c-1.86.09-3.76.13-5.62.13s-3.85 0-6-.13c-.38.17-.38 1-.09 1.23l1.17.21c2 .3 2.37.42 2.37 4.82v15.71c0 4.4-.38 4.52-2.37 4.78l-1.27.21c-.38.21-.25 1.06.08 1.23 1.78-.09 3.9-.13 6.06-.13h4.4c4.74 0 8.38 0 10.15.13a40.11 40.11 0 001.78-6.14 1.13 1.13 0 00-1.26-.25zM23.12 56c-1.9 0-2.41 1.27-2.41 2A1.49 1.49 0 0022 59.51a2.37 2.37 0 012.29 2.2c0 1.86-1.61 3.09-3.43 3.85a1 1 0 00.29 1.1c2.92-.72 5.8-3.09 5.8-6.3C27 58 25.19 56 23.12 56zM50.35 49.86c-10.9 0-18.83 8.1-18.83 18.67 0 9.53 7.09 17.94 18.83 17.94A18.06 18.06 0 0068.7 68c0-9.3-6.13-18.14-18.35-18.14zm.69 35c-10.42 0-14.23-10.16-14.23-18 0-11.6 7.19-15.36 12.64-15.36 10.1 0 14 9.42 14 18.15-.04 10.42-6.06 15.18-12.45 15.18zM98.59 78.3c-1.18 2.75-3.51 6.3-8.84 6.3s-11.09-4.4-11.09-13.41c0-8.67 5.42-12.48 10.79-12.48 5.59 0 7.49 3.51 8.21 6.17A1.09 1.09 0 0099 64.8c-.43-3.13-.51-5.63-.59-6.6-.39-.09-.68-.13-1.19-.26a33.12 33.12 0 00-7.3-.94 19.62 19.62 0 00-11.68 3.6 13.81 13.81 0 00-5.33 11.21 13.32 13.32 0 006 11.64 19.24 19.24 0 0010.84 2.85 25 25 0 006.6-1 13.34 13.34 0 011.48-.38 16.2 16.2 0 002-6.43.85.85 0 00-1.24-.19zM128 78.3c-1.19 2.75-3.51 6.3-8.85 6.3S108 80.2 108 71.19c0-8.67 5.41-12.48 10.79-12.48 5.58 0 7.49 3.51 8.21 6.17a1.07 1.07 0 001.35-.08c-.42-3.13-.51-5.63-.59-6.6-.38-.09-.68-.13-1.19-.26a33 33 0 00-7.32-.93 19.65 19.65 0 00-11.68 3.6 13.81 13.81 0 00-5.33 11.21 13.32 13.32 0 006 11.64 19.28 19.28 0 0010.83 2.84 25 25 0 006.61-1 12.79 12.79 0 011.48-.38 16.53 16.53 0 002-6.43.85.85 0 00-1.16-.19zM142.17 58.92l.93-.13c.3-.29.26-1.06-.08-1.23-1.86.09-3.77.13-5.63.13s-3.85 0-5.71-.13c-.34.17-.38.94-.09 1.23l.93.13c2 .25 2.37.38 2.37 4.86v15.75c0 4.48-.38 4.61-2.37 4.86l-.93.13c-.29.3-.25 1.06.09 1.23 1.86-.09 3.85-.13 5.71-.13s3.77 0 5.63.13c.34-.17.38-.93.08-1.23l-.93-.13c-2-.25-2.37-.38-2.37-4.86V63.78c0-4.48.38-4.61 2.37-4.86z"></path>
  <path class="cls-1" d="M164.22 84.35c-2-.21-2.37-.34-2.37-4.82V61.25c0-1.78 0-1.87 1.14-1.87h2.41c4.53 0 5.33.81 5.88 4.11a1 1 0 001.32-.13 29.81 29.81 0 01.63-6.73.69.69 0 00-.55-.21 1.28 1.28 0 00-.51.17c-.51 1-1.14 1.1-3.21 1.1h-17.27a10.63 10.63 0 01-3-.21 3.15 3.15 0 00.32-.83c.06-.54.06-1.31.12-1.79a3.37 3.37 0 00.3-1.14 7.29 7.29 0 01.66-1.55s.06-.36.12-.66a13.63 13.63 0 011.25-3.29 3.81 3.81 0 01.36-1c.12-.12.3-1 .54-.66-.18.42-.36 1-.54 1.32 0 1.79-1.43 3.77-1.31 5.74.42-1.25.9-2.51 1.31-3.59a7.16 7.16 0 011.38-3.29c-.24-1 .54-1.08.54-2.15a2 2 0 00.9-.66 1.85 1.85 0 01.41-.72c.9.18 1.08.72 1.56 1.14a5.15 5.15 0 002.09.36 12.37 12.37 0 003.83-.72 6.4 6.4 0 002.22-.84c1.25-.66.71.36 2.09-.36a3.64 3.64 0 011.08-.3c.12-.06.9-.36 1.13-.42l1-.35c.9-.3.36-.18 1.44-.6a12.86 12.86 0 003.07-1.12c.54.12 2-.78 2.81-1.08 0 0 2.81-1.37 3.23-1.73s1.68-1.14 2-1.5.08 0 .5-.46a.69.69 0 00.16.22c-.12.24-.3.24-.48.3.24.42-.36 1-.18 1.74.06.12.18.6.42.72s.36 0 .54.06c.71.41 1.07 2.09 1.91 2.39.18.06 2 .84 2.15.9.66.24 1.44.18 2.16.47a2.55 2.55 0 01.66.12 4.78 4.78 0 001.85 0 6.74 6.74 0 002.75-.59 3.82 3.82 0 001.44-.24c.72-.18 1.26-.54 1.73-.48.36-.6.9-.42 1.44-.78a6.19 6.19 0 011.8-.84c.77-.54.71-.9 1.55-1.25.24-.18 1.08-.78 1.2-.84s.71-.78 1-.84c0-.18.65-.54.77-.66a6.75 6.75 0 00.9-1.37c.78-.78.42-2-.24-2.16-.06 1-2.09 2.46-2.81 2.81a1.84 1.84 0 00-.72.42 26.67 26.67 0 01-8.2 3.67 21.62 21.62 0 01-4.3.54 5.79 5.79 0 00-1.26-.36c-2-.24-1.62-2.63-1.32-3.23.54.06.9-.48 1.32-.66.06-.18.36 0 .54-.18.6-.23 1-.83 1.25-1a8 8 0 01.72-.36 15.11 15.11 0 001.62-1.08c.72-.6 1.67-1 2.27-1.55.06-.24.72-.6.72-.78.42-.54 1-.84 1.56-1.56.11-.54.71-.9.41-2-.06-.12-.3-.3-.35-.48-.18-.66-2-1.74-2.94-2-.24 0-.36.23-.48.05s-.3-.53-.65-.59c-1.14-.24-2.58-.54-3.77.42a5.77 5.77 0 01-1.5.89 9.87 9.87 0 00-1.38 1.32 12.77 12.77 0 00-2.15 2.61 2 2 0 00-.42.9c-.12.18-.48.36-.66.6a9.6 9.6 0 00-.11 1c-.06.17-.18.44-.32.75l-.23.15c-2.63 2.16-9.93 5.27-11.48 5.45-.72.06 1.07-2 .47-2a6.59 6.59 0 001.44-5.56c-.18-.54-.48-1.26-.72-1.32-.06-.18-.06-.36-.12-.42l-1.31-.78c-.18 0-.24-.29-.6-.41a6.38 6.38 0 00-2.51-1c-3.23-.36-6.59.9-8.56 1.56a11.15 11.15 0 00.06-2.82c-.06-.42-.66-.42-.6-.77s-.42.05-.54-.18c-.06-.84-.42-.9-.3-1.32-.35-.12-.47-.36-.65-.06.41-.42-1.8-1.32-1.62-1.14a3.41 3.41 0 00-3.23-.66 10.65 10.65 0 01.54 3.36.46.46 0 00.06.17 31.09 31.09 0 01-1.92 6.88c-.16.5-.33 1-.49 1.47a5.76 5.76 0 00-1.25.69c-.65.36-1.61 1.14-4.6 3.29a22.34 22.34 0 00-1.86 1.32 8.89 8.89 0 01-4.31 1.55c-.29-.48-.53-.78-.65-1-.12-.47.12-.65.12-1.13a6.54 6.54 0 01.24-2.63c.23-.9.71-1.68.83-2.46.12-1.13-.6-1.37-1.07-1.79-.48-.18-.54-.36-.66-.36a5.93 5.93 0 00-1.8-.24 2.23 2.23 0 00-1.31.6c-.48.12-.36.36-.78.48-4.25 2.33-7.12 5.74-10.35 8.61a1.39 1.39 0 01-1 .54 22.92 22.92 0 01.6-2.63 3.26 3.26 0 010-1.08c0-.24.06-.12.3-.42.06-.06 0-.12.06-.36.3-.72.48-1.61.78-2.45a5.91 5.91 0 00.36-1.68 10.19 10.19 0 00.53-2.33c-.12-.72-.65-1.08-.71-1.61 0-.36.06-.6.06-.9 0-.54-.36-.36-.54-.78-.12-.24 0-.72-.12-1.08-.06-.06-.24-.12-.3-.3a1.59 1.59 0 00-.06-.47c0-.06-.36-.18-.42-.36a1.08 1.08 0 00-.36-.54 7.92 7.92 0 00-4.37-1.92 17.62 17.62 0 00-8.85 1.56c-2.16.72-3.65 2.51-5.81 3.23.06.48.48.66.66 1 .12.06.12.42.24.42a2.73 2.73 0 011.68.53c-.12.42.36.9.48 1.44a4.64 4.64 0 01-.48 2 2.72 2.72 0 01-.72 1.5 7.49 7.49 0 01-.72.48c-.3.18-.3.78-.48 1.14a2.53 2.53 0 00-.66.77 33 33 0 01-4 4.19A1.66 1.66 0 0199 40a8.71 8.71 0 01-.18-3.29 6.37 6.37 0 01.9-3.17 9.74 9.74 0 012.39-3.35c.24-.36.54-.9.72-1.2.66-.42 1.31-.54 1.55-1.08a4.2 4.2 0 00-1.43-.47c-.3-.36-.84-.42-1.26-.78a8.78 8.78 0 00-.78-.54 3.41 3.41 0 00-.83.72 12.06 12.06 0 00-2.82 3c-.36.78-1 1.49-1.31 2.21-.12.3-.42.66-.48.9s0 .48-.06.6c-.48.3-.6.6-.6.66s-.06.42-.12.66a10.77 10.77 0 00-.3 2.87 4 4 0 002.63 4c.54.12 1.08.65 1.62.71a6.31 6.31 0 004.19-.65 4.6 4.6 0 002-1.08 15 15 0 011.38-1.5c.42-.6 1.08-1 1.37-1.43a11.36 11.36 0 01.36-1.08 4.76 4.76 0 01.72-.78 2.61 2.61 0 00.42-1.25 13.39 13.39 0 001.26-3.77 6.73 6.73 0 00-.72-4.31c.72-.3 2-.84 2.69-1.2a3.9 3.9 0 011.86-.48.57.57 0 00.47-.3 30.4 30.4 0 003.36-.77 17.22 17.22 0 012.21-.3c.54.24.36 1.73.18 2.33-.24 1.26.18 1-.18 2s-.6 1.67-.78 2.33c-.18.18-.18.72-.24 1-.06.47-.6.59-.66.89s-.06.72-.12 1.2c-.3 1.67-.59 3.65-1 5.56a8.62 8.62 0 001.13 5.09c.66.78.66.3 1.56.48.06 0 .48.3.6.3a8.83 8.83 0 003 .36h.12a2.17 2.17 0 001.26-.24 2.12 2.12 0 001-.24c.36-.48.36-.9.66-1.26a2.5 2.5 0 01.36-.12c.06-.06.06-.18.24-.3a20.61 20.61 0 011.79-1.55.51.51 0 01.36-.12c.06-.18.06-.36.12-.42.24-.12.3-.3.42-.54a19 19 0 004.31-4.85c.3-.06-.06-.36 0-.66.3-.23.18-.59.48-.53a8.44 8.44 0 00-.24 2.15 5.39 5.39 0 00.78 3.17c.29.18.89.72 1.25 1 .12.18.6.18.84.3.42.06.66.54 1.08.54h.71c.48 0 .84.12 1.2.12a10 10 0 002.1-.42 11.53 11.53 0 004.48-2.52 2.63 2.63 0 001.32-1.25c.6-.48 1.08-1.14 1.73-1.62.15-.12.28-.24.41-.36a64.15 64.15 0 00-2.61 9.64 64.36 64.36 0 00-2.52 15.67c0 .77 0 1.58.06 2.36a11.51 11.51 0 00.42 3.18 6.13 6.13 0 00.6 2.33c.6 1.55 1.37 2.39 2.81 1.61a9.2 9.2 0 00-.42-1.73 24.22 24.22 0 00-.54-2.45c.24.06.18-.3.24-.42s-.06-.36-.18-.06c0 .06 0 .18-.12.12s0-.36-.12-.36c.08-1.36.09-2.85.17-4.43 1.1-1.18 2.47-1.4 5.09-1.4h2.37c1.1 0 1.14.09 1.14 1.87v18.23c0 4.48-.38 4.61-2.37 4.78l-1.78.21a.92.92 0 00.09 1.23c2.71-.09 4.69-.13 6.56-.13s3.76 0 6.21.13c.35-.17.39-.93.09-1.23zm29.91-56.6s.06-.17.41 0a1.63 1.63 0 010 .78c-.11.42-.77 1-1.25 1.32-1.32.9-2.51 2.15-3.83 2.87 0 0-.3.12-.3-.12 1.38-1.79 3.05-3.83 4.97-4.85zM158 36.43a4 4 0 00.47-.36 1.19 1.19 0 010-.42c0-.06.18-.06.24-.18.24-.42.6-.59 1.32-.95a13.78 13.78 0 001.68-1.38l.53-.18.12-.18a4.93 4.93 0 001.38-.66c1.85-.71 4.07-1.67 6.16-1.67.18.66-.42 1.19-.54 1.37a5.3 5.3 0 01-1.43 1.44 4.73 4.73 0 01-2.39 1.38 16.62 16.62 0 00-2.94 1.73c-.36 0-.72.48-1 .54-.06.12-.3 0-.36 0-.3.3-.36.54-.72.72-.12.18-.72.18-1.08.3-.78.18-1.61.89-2.57 1 .64-.47.76-1.72 1.13-2.5z"></path>
  <path class="cls-1" d="M196.17 84.39c-2.16-.38-2.37-.68-3.34-3.51l-6.1-17.73c-.67-1.9-1.22-3.89-1.9-5.8a.85.85 0 00-.72-.34c-.09 0-1.48 1.74-3 2a6.83 6.83 0 01-.81 3.09l-5.75 15.1c-.89 2.28-1.57 4.06-2.08 5.16-.63 1.4-1.1 1.78-2.33 2l-1.27.21a1 1 0 000 1.23c1.48-.09 2.79-.13 4.19-.13 1.73 0 3.13 0 4.48.13.34-.17.38-.93.09-1.23l-1.23-.21c-1.57-.21-1.74-.34-.89-2.84l1.74-5.08c.38-1.14.33-1.14 1.43-1.14h5.63c1.19 0 1.31 0 1.74 1.14l2 5.76c.55 1.82.42 2.07-1.1 2.24l-.93.13a1 1 0 00.12 1.23c1.48 0 3.35-.13 5.16-.13 2.21 0 3.77 0 5.51.13a.92.92 0 000-1.23zm-12.36-11h-4.4c-1 0-1.14 0-.68-1.23l1.78-5c.76-2 1.1-3 1.27-3.34h.09a20.35 20.35 0 011.18 3.34l1.78 5.08c.34 1.02.17 1.11-1.02 1.11zM223.63 57.69c-1.65 0-3.22 0-4.87-.13-.42.13-.46.94-.08 1.23l1 .13c1.06.17 1.74.42 2.12 1.06.76 1.27.8 5.16.8 8.33v8.25c0 .68 0 .89-.13 1-.42-.25-4.35-4.74-6.13-6.69l-4.23-4.57c-1.48-1.6-6.1-6.94-6.82-8.76-1 .09-2 .13-2.92.13-1.05 0-3.38 0-5-.13-.42.13-.47 1-.17 1.23l.64.13a6.54 6.54 0 012.24.85c1.44 1.22 1.4 1.9 1.4 5.2V75c0 3.34 0 7-.56 8.33-.29.68-1.05.85-1.86 1l-.93.21a.87.87 0 00.09 1.23c1.48-.09 2.62-.13 4.4-.13 1.61 0 3.26 0 4.82.13.43-.13.47-.93.09-1.23l-.93-.13c-1.06-.17-1.78-.42-2.16-1.06-.72-1.27-.76-5.16-.76-8.33v-8.27c0-2.25 0-2.71.12-2.71.72.63 2.08 2.24 4.83 5.33l9.9 11.3c3 3.47 4.27 4.91 5 5.8a1.61 1.61 0 001.44-.6c-.13-1-.13-6.17-.13-7.44V68.31c0-3.34 0-7 .59-8.33.3-.68 1-.85 1.82-1l1-.21a.87.87 0 00-.09-1.23c-1.61.11-2.71.15-4.53.15zM252.7 79.36c-1.48 3.43-2.42 4.65-7.79 4.57-3.55 0-4.27-.34-4.78-.93s-.72-2.25-.72-4.4v-5.38c0-1.06 0-1.14 1-1.14h2c3.68 0 4.4.08 4.69 1.86l.3 1.69c.34.26 1.14.26 1.35 0 0-1.35-.12-2.83-.12-4.44s.08-3.09.12-4.23c-.21-.34-1-.34-1.35 0l-.3 1.44c-.29 1.82-1 1.86-4.69 1.86h-2c-1 0-1 0-1-1.14v-7.24c0-2.41 0-2.5 1.82-2.5h2.83a12.23 12.23 0 013.39.39c1.35.33 2 1.39 2.67 3.85.33.25 1.18.16 1.35-.17-.25-1.82-.51-5.17-.68-5.89-.55.09-3 .13-5.71.13H237c-1.86 0-3.85 0-5.46-.13-.34.17-.38.94-.09 1.23l.68.09c2 .29 2.37.42 2.37 4.9v15.75c0 4.48-.38 4.61-2.37 4.82l-1.57.17c-.29.3-.25 1.06.09 1.23 1.9-.09 4.49-.13 6.35-.13h4.82c5 0 8.59 0 10.45.13a26.63 26.63 0 001.78-6.14 1 1 0 00-1.35-.25zM73.14 32.18c.18-.12.6-.06.72-.12a2.55 2.55 0 01.53-.36c.24 0 .72-.24 1-.18a2.31 2.31 0 01.9-.23c0-.12.06-.18.18-.36.48-1 0-1-.42-1.38a10.26 10.26 0 01-.84-.66 5.17 5.17 0 00-4.21-.66c-.42-.06-.77-.3-.77-.12-.48-.06-.84.3-1.44.48-1.26.42-3 .6-4.85 1.32a16.76 16.76 0 00-2.39.9 9.51 9.51 0 01-2.39 1c-.54-.06-1.08-.71-1.44-.48a5.37 5.37 0 00.12 1.38 2.68 2.68 0 01.42.84c.18.3.3.66.48.78.36.66 1.08.77 1.31 1.43.48-.36.9-.06 1.44 0 1-.12 2.09-.77 2.93-.89a25.29 25.29 0 01-7.18 4.84c-1 .36-2.51 1.32-3.53.78a12.94 12.94 0 01-5.44.66 7.79 7.79 0 01-4.25-1.5 7.1 7.1 0 01-1.1-3.65 11.82 11.82 0 01.78-4.31 11.29 11.29 0 01.3-1.61 27.48 27.48 0 011.38-3.95 1.35 1.35 0 01.36-.84c.12-.24.29-.36.35-.6a3.66 3.66 0 01.06-.71c0-.18.24-.48.24-.6s-.12-.48.06-.54c0-.3.36-.66.48-1a10.16 10.16 0 00.54-1.19 9 9 0 01.9-1.38c1.43-2.15 3.05-4.61 4.54-6.82a12.86 12.86 0 013.29-3.18 5 5 0 011.38-.9c.78-.42 2.69-1.38 3.29-1 .24.18.12.54.24.78a3.5 3.5 0 00.48 1.32.43.43 0 00.24.36c0 .12-.12.36-.12.47s.24 0 .24.18v.12c.36.42.6 1 1 1.32a.8.8 0 00-.18.42 4.81 4.81 0 012 .6c.54-.12 1.44-.72 1.5-1.08.12-.54-.18-1.08-.06-1.61a1.59 1.59 0 01.06-.84A6.09 6.09 0 0064 5.08a9.83 9.83 0 00-2-1.62c-.72-.53-1.44-.89-2.15-1.37-.71-.09-1.43-.09-1.91-.54-.06.48-.36 0-.6-.06s-.18.36-.48.36c-1-.24-1.61.42-2.51.54-.42.06-.72-.06-1 0s-1 .78-1.43 1c-.06.06-.24.06-.3.24-.72.18-.78.42-1.2.72-.3.12-.54.18-.66.36s-.29.48-.59.72-.72.36-1 .84c-.18.06-.3.47-.54.6-.18.41-.78.59-1.08.83a8.22 8.22 0 01-.12 1 2.15 2.15 0 00-.89.78c-.24.18-.48.54-.84.89A20.52 20.52 0 0043.4 12a24.44 24.44 0 00-1.61 2.75c-.18.18-.06.42-.06.54a1.48 1.48 0 01-.24.54c0 .12 0 .36-.12.36a5 5 0 00-.72 1.19c-.36.24-.3.78-.72 1a.89.89 0 00.06-.54c-.3.72-.9 1.08-1.13 2-.36.54-.25 1.07-.54 1.55-.06.36-.36.72-.36 1a2.61 2.61 0 00-.3.78 18.39 18.39 0 01-.6 2c-.12.54-.12 1.2-.24 1.62s-.24.42-.42.72a2.83 2.83 0 010 1 29 29 0 00-.18 5.63 17.25 17.25 0 002.34 7.66 16 16 0 001.19 1.37c.18.12.18.36.18.66.12.06.36.06.48.18a7.73 7.73 0 01.78 1.08 10.31 10.31 0 011.14.59c.35.06.83.66 1.07.66s.48 0 .72.06.36.42.48.54a9 9 0 002.27.72 9.14 9.14 0 005.09-.6 1.09 1.09 0 00.66-.18 1.54 1.54 0 01.65-.36 10.09 10.09 0 001.44-.42 3.84 3.84 0 001.14-.78c.24.07 0 .42.24.48a13.73 13.73 0 011.49-1.8c.48-.3 1.14-.42 1.62-.72a3.57 3.57 0 00.89-1.49c.18 0 .36.23.72-.06.18-.06.06-.36.06-.6a32.38 32.38 0 003-2.82 2.11 2.11 0 011.2-.11 26.69 26.69 0 00-1.56 7.06c-.17 2.69.6 4.9 2.4 5.5 0-.12.42-.3.42-.48.24-.18-.06-.48 0-.9A7.76 7.76 0 0166.5 48a15.58 15.58 0 011.25-4.61c.3-.84.42-1.49.78-2.27a32.23 32.23 0 012.09-4.73 6.17 6.17 0 01.9-1.62 6.17 6.17 0 011.62-2.59zM45.32 10a2.54 2.54 0 01-.66 1.07 6.66 6.66 0 01-.72 1c.06-1.01.84-1.37 1.38-2.07zm-1.68 2c.3 0-.12.6-.36.48 0-.22.36-.1.36-.48zM77.69 35.65A10.78 10.78 0 0079.84 34c.6-.6 1.14-.6 1.44-1.5.06-.12 1.13-.78 1.31-1 .9-1.07.54-.71 1.44-1.91.42-.3.48.48 1.08.42.48.36 1.13.36 1.31 1a28.93 28.93 0 00-2.21 10.77 11.76 11.76 0 00.36 3.35 7.92 7.92 0 00.36 1.07 13.05 13.05 0 00.66 1.62c.83 1.37 3.11 2.27 5.32 1.91A4 4 0 0093 48.64a14.8 14.8 0 01-2.45.29c-.3-.35.06-.35-.24-.65-.18-.12-.54-.06-.84-.3l-.06-.18a5.58 5.58 0 01-.65-2.1 15.67 15.67 0 01.65-5.7 13.76 13.76 0 01.59-2.55c.06-.06.36-.3.36-.36a25.75 25.75 0 001-3.05 10.86 10.86 0 001.08-1.62c-.36-.24-.9-.42-.72-1.25a3.64 3.64 0 01-.6-.42c-.36-.54-.36-.78-.84-1 0 0-.06-.24-.18-.24a.77.77 0 00-.6-.24 6.14 6.14 0 00-1-.72c-.66-.3-1.68-.06-2.1-.83a26.16 26.16 0 001.86-3.59 14.21 14.21 0 001.13-6.47c-.05 0-.11-.18-.11-.35-.6-.72-1.56-1.08-2.28-1.8-.12-.24-.24-.12-.3-.12-.24.3-.54.24-.72.36a18.58 18.58 0 00-2.15 2.09 4.37 4.37 0 00-1.14 1.44c0 .06-.23.18-.3.24s.07.12 0 .3c0 0-.29-.12-.35 0s.06.24 0 .36-.3.06-.36.12a8.69 8.69 0 00-.76 1.7 10.42 10.42 0 00-.66 4c0 .06.36.42.36.48.3 1-.06.3.36.9a5 5 0 01.78.71 12.31 12.31 0 01-1 1.56 14 14 0 01-1.44 1.56c-.66.71-.66.71-1.55 1.73a22 22 0 01-2.52 2.15c.04.38.94.62 2.44.56zm8.14-14.6c.12-.12.41-.06.47-.3a1.13 1.13 0 01-.24 1c-.47 1.2-1.31 2.4-1.91 3.89-.42-2.01 1.38-2.97 1.68-4.59z"></path>
</svg>
